<svg width="118" height="38" viewBox="0 0 118 38" fill="none" xmlns="http://www.w3.org/2000/svg">
<g filter="url(#filter0_d_10_2)">
<path d="M25.736 3.26C25.496 3.884 25.172 4.796 24.764 5.996C24.38 7.172 23.996 8.708 23.612 10.604H22.892C22.964 10.268 23.012 9.92 23.036 9.56C23.084 9.2 23.108 8.864 23.108 8.552C23.108 7.664 22.928 6.86 22.568 6.14C22.232 5.396 21.692 4.808 20.948 4.376C20.204 3.92 19.22 3.692 17.996 3.692C16.556 3.692 15.356 4.064 14.396 4.808C13.436 5.552 12.956 6.704 12.956 8.264C12.956 9.176 13.172 10.028 13.604 10.82C14.06 11.588 14.624 12.332 15.296 13.052C15.992 13.748 16.724 14.456 17.492 15.176C18.284 15.872 19.016 16.592 19.688 17.336C20.384 18.08 20.948 18.872 21.38 19.712C21.836 20.528 22.064 21.44 22.064 22.448C22.064 23.696 21.788 24.764 21.236 25.652C20.684 26.54 19.964 27.272 19.076 27.848C18.188 28.4 17.204 28.808 16.124 29.072C15.068 29.36 14.012 29.504 12.956 29.504C11.996 29.504 11.192 29.408 10.544 29.216C9.896 29.048 9.356 28.832 8.924 28.568C8.492 28.304 8.132 28.064 7.844 27.848C7.58 27.632 7.328 27.488 7.088 27.416C6.872 27.344 6.692 27.308 6.548 27.308C6.236 27.308 5.972 27.476 5.756 27.812C5.564 28.124 5.336 28.604 5.072 29.252H4.352C4.568 28.724 4.796 28.112 5.036 27.416C5.276 26.72 5.54 25.832 5.828 24.752C6.116 23.648 6.44 22.268 6.8 20.612H7.52C7.424 21.116 7.34 21.608 7.268 22.088C7.196 22.544 7.172 23.024 7.196 23.528C7.268 25.16 7.772 26.444 8.708 27.38C9.644 28.316 11.096 28.784 13.064 28.784C14.624 28.784 15.896 28.424 16.88 27.704C17.864 26.984 18.356 25.844 18.356 24.284C18.356 23.276 18.152 22.376 17.744 21.584C17.36 20.792 16.844 20.06 16.196 19.388C15.572 18.692 14.9 18.02 14.18 17.372C13.484 16.724 12.812 16.052 12.164 15.356C11.54 14.636 11.024 13.844 10.616 12.98C10.232 12.116 10.04 11.132 10.04 10.028C10.04 8.876 10.268 7.868 10.724 7.004C11.18 6.116 11.78 5.384 12.524 4.808C13.292 4.208 14.144 3.764 15.08 3.476C16.016 3.164 16.976 3.008 17.96 3.008C18.968 3.008 19.832 3.128 20.552 3.368C21.272 3.608 21.968 3.992 22.64 4.52C22.928 4.736 23.168 4.904 23.36 5.024C23.552 5.12 23.708 5.168 23.828 5.168C24.164 5.168 24.56 4.532 25.016 3.26H25.736ZM27.7416 29H24.6096L31.7376 4.988C31.9776 4.172 31.9416 3.572 31.6296 3.188C31.3416 2.804 30.6096 2.612 29.4336 2.612L29.6496 1.856C30.9696 1.832 32.1576 1.7 33.2136 1.46C34.2696 1.196 35.2416 0.835999 36.1296 0.379999L27.7416 29ZM28.7496 23.672C29.6616 21.152 30.5256 19.016 31.3416 17.264C32.1816 15.512 33.0096 14.108 33.8256 13.052C34.6416 11.972 35.4816 11.192 36.3456 10.712C37.2096 10.232 38.1096 9.992 39.0456 9.992C40.1736 9.992 40.9416 10.268 41.3496 10.82C41.7816 11.348 41.9736 12.032 41.9256 12.872C41.8776 13.712 41.7096 14.564 41.4216 15.428L37.9296 25.94C37.7376 26.564 37.6536 27.092 37.6776 27.524C37.7016 27.956 37.9776 28.172 38.5056 28.172C38.9616 28.172 39.4056 27.92 39.8376 27.416C40.2936 26.912 40.7736 25.94 41.2776 24.5L41.7456 23.168H42.4296L41.5296 25.796C41.1936 26.804 40.7736 27.572 40.2696 28.1C39.7896 28.628 39.2736 28.988 38.7216 29.18C38.1936 29.396 37.6776 29.504 37.1736 29.504C36.2136 29.504 35.5416 29.288 35.1576 28.856C34.7736 28.424 34.6056 27.824 34.6536 27.056C34.7256 26.288 34.9176 25.424 35.2296 24.464L38.6496 14.168C38.7696 13.808 38.8776 13.388 38.9736 12.908C39.0696 12.428 39.0456 12.02 38.9016 11.684C38.7816 11.324 38.4336 11.144 37.8576 11.144C37.2576 11.144 36.6096 11.42 35.9136 11.972C35.2416 12.5 34.5456 13.268 33.8256 14.276C33.1056 15.284 32.3976 16.496 31.7016 17.912C31.0056 19.328 30.3336 20.912 29.6856 22.664C29.0616 24.392 28.4736 26.264 27.9216 28.28L28.7496 23.672ZM48.9864 28.352C49.5624 28.352 50.2224 27.992 50.9664 27.272C51.7104 26.528 52.4664 25.532 53.2344 24.284C54.0024 23.036 54.7104 21.62 55.3584 20.036C56.0064 18.452 56.5224 16.808 56.9064 15.104L56.2944 18.992C55.3824 21.536 54.4704 23.588 53.5584 25.148C52.6464 26.684 51.7224 27.8 50.7864 28.496C49.8504 29.168 48.9024 29.504 47.9424 29.504C46.8144 29.504 45.9624 29.096 45.3864 28.28C44.8344 27.464 44.5584 26.42 44.5584 25.148C44.5584 23.996 44.7504 22.748 45.1344 21.404C45.5184 20.036 46.0464 18.68 46.7184 17.336C47.4144 15.992 48.2064 14.768 49.0944 13.664C49.9824 12.56 50.9424 11.672 51.9744 11C53.0304 10.328 54.0984 9.992 55.1784 9.992C56.0184 9.992 56.6544 10.412 57.0864 11.252C57.5424 12.068 57.6384 13.22 57.3744 14.708L56.9784 14.924C57.1464 13.652 57.0624 12.632 56.7264 11.864C56.3904 11.072 55.8384 10.676 55.0704 10.676C54.4464 10.676 53.7864 10.988 53.0904 11.612C52.4184 12.212 51.7584 13.04 51.1104 14.096C50.4864 15.128 49.9104 16.292 49.3824 17.588C48.8784 18.884 48.4704 20.228 48.1584 21.62C47.8704 22.988 47.7264 24.308 47.7264 25.58C47.7264 26.612 47.8344 27.332 48.0504 27.74C48.2904 28.148 48.6024 28.352 48.9864 28.352ZM58.0584 10.496C58.6344 10.472 59.2104 10.424 59.7864 10.352C60.3624 10.28 60.8904 10.16 61.3704 9.992L56.8704 25.904C56.8224 26.12 56.7504 26.408 56.6544 26.768C56.5824 27.104 56.5824 27.416 56.6544 27.704C56.7504 27.992 57.0024 28.136 57.4104 28.136C57.8904 28.136 58.3584 27.872 58.8144 27.344C59.2704 26.816 59.7264 25.856 60.1824 24.464L60.6144 23.132H61.2984L60.3984 25.76C60.0624 26.72 59.6544 27.476 59.1744 28.028C58.7184 28.556 58.2384 28.928 57.7344 29.144C57.2304 29.384 56.7384 29.504 56.2584 29.504C55.3224 29.504 54.6624 29.192 54.2784 28.568C53.9664 28.016 53.8824 27.38 54.0264 26.66C54.1704 25.916 54.3384 25.172 54.5304 24.428L58.0584 10.496ZM67.4341 29H64.3021L68.6221 13.556C68.8621 12.74 68.9341 12.164 68.8381 11.828C68.7661 11.492 68.5261 11.324 68.1181 11.324C67.5901 11.324 67.1101 11.6 66.6781 12.152C66.2461 12.704 65.7901 13.652 65.3101 14.996L64.8421 16.328H64.1581L65.0581 13.7C65.4181 12.692 65.8381 11.924 66.3181 11.396C66.8221 10.868 67.3381 10.508 67.8661 10.316C68.4181 10.1 68.9341 9.992 69.4141 9.992C70.1341 9.992 70.6381 10.148 70.9261 10.46C71.2381 10.772 71.4061 11.18 71.4301 11.684C71.4781 12.188 71.4421 12.74 71.3221 13.34C71.2261 13.916 71.1061 14.48 70.9621 15.032L67.4341 29ZM76.6861 10.892C76.1341 10.892 75.5581 11.156 74.9581 11.684C74.3821 12.188 73.7821 12.932 73.1581 13.916C72.5581 14.876 71.9461 16.04 71.3221 17.408C70.7221 18.752 70.1221 20.252 69.5221 21.908C68.9461 23.564 68.3821 25.352 67.8301 27.272L68.7301 22.664C69.5221 20.312 70.2541 18.332 70.9261 16.724C71.6221 15.116 72.3061 13.82 72.9781 12.836C73.6501 11.828 74.3341 11.108 75.0301 10.676C75.7501 10.22 76.5061 9.992 77.2981 9.992C77.9701 9.992 78.4861 10.184 78.8461 10.568C79.2301 10.952 79.4221 11.444 79.4221 12.044C79.4221 12.524 79.3021 12.968 79.0621 13.376C78.8221 13.76 78.5101 14.072 78.1261 14.312C77.7661 14.528 77.3581 14.636 76.9021 14.636C76.4941 14.636 76.1461 14.528 75.8581 14.312C75.5941 14.072 75.4621 13.748 75.4621 13.34C75.4621 12.956 75.5341 12.62 75.6781 12.332C75.8221 12.02 76.0141 11.756 76.2541 11.54C76.4941 11.324 76.7701 11.156 77.0821 11.036C77.0341 10.988 76.9741 10.952 76.9021 10.928C76.8541 10.904 76.7821 10.892 76.6861 10.892ZM80.7271 20.828C82.0711 20.372 83.2831 19.928 84.3631 19.496C85.4671 19.04 86.3431 18.56 86.9911 18.056C87.8551 17.36 88.5391 16.52 89.0431 15.536C89.5471 14.552 89.7991 13.472 89.7991 12.296C89.7991 11.6 89.7511 11.156 89.6551 10.964C89.5591 10.772 89.4151 10.676 89.2231 10.676C88.6231 10.676 87.9751 10.94 87.2791 11.468C86.5831 11.996 85.8991 12.728 85.2271 13.664C84.5551 14.576 83.9311 15.62 83.3551 16.796C82.8031 17.972 82.3591 19.232 82.0231 20.576C81.6871 21.896 81.5191 23.216 81.5191 24.536C81.5191 25.76 81.7471 26.648 82.2031 27.2C82.6591 27.728 83.2591 27.992 84.0031 27.992C84.8671 27.992 85.7791 27.728 86.7391 27.2C87.6991 26.672 88.6351 25.736 89.5471 24.392L90.1231 24.68C89.6671 25.472 89.0671 26.24 88.3231 26.984C87.5791 27.728 86.7391 28.34 85.8031 28.82C84.8911 29.276 83.9191 29.504 82.8871 29.504C81.9271 29.504 81.0871 29.312 80.3671 28.928C79.6471 28.544 79.0951 27.98 78.7111 27.236C78.3271 26.468 78.1351 25.532 78.1351 24.428C78.1351 23.396 78.3271 22.244 78.7111 20.972C79.0951 19.676 79.6351 18.392 80.3311 17.12C81.0511 15.824 81.9031 14.636 82.8871 13.556C83.8711 12.476 84.9631 11.612 86.1631 10.964C87.3631 10.316 88.6471 9.992 90.0151 9.992C90.7591 9.992 91.3831 10.196 91.8871 10.604C92.4151 10.988 92.6791 11.576 92.6791 12.368C92.6791 13.328 92.3911 14.228 91.8151 15.068C91.2631 15.884 90.5191 16.64 89.5831 17.336C88.6711 18.008 87.6751 18.608 86.5951 19.136C85.5151 19.664 84.4591 20.12 83.4271 20.504C82.3951 20.888 81.4831 21.2 80.6911 21.44L80.7271 20.828ZM106.421 25.94C106.253 26.492 106.181 27.008 106.205 27.488C106.253 27.944 106.541 28.172 107.069 28.172C107.549 28.172 107.993 27.908 108.401 27.38C108.809 26.828 109.241 25.868 109.697 24.5L110.129 23.168H110.813L109.985 25.796C109.697 26.756 109.313 27.512 108.833 28.064C108.353 28.592 107.849 28.964 107.321 29.18C106.793 29.396 106.289 29.504 105.809 29.504C104.369 29.504 103.613 28.82 103.541 27.452C103.517 27.068 103.541 26.624 103.613 26.12C103.709 25.616 103.841 25.064 104.009 24.464L109.193 4.988C109.409 4.172 109.373 3.572 109.085 3.188C108.797 2.804 108.065 2.612 106.889 2.612L107.105 1.856C108.425 1.832 109.589 1.7 110.597 1.46C111.605 1.196 112.565 0.835999 113.477 0.379999L106.421 25.94ZM98.3567 28.352C98.9567 28.352 99.6287 28.004 100.373 27.308C101.141 26.588 101.909 25.628 102.677 24.428C103.469 23.204 104.189 21.824 104.837 20.288C105.509 18.728 106.037 17.12 106.421 15.464L105.881 19.352C104.945 21.824 104.009 23.804 103.073 25.292C102.161 26.78 101.225 27.86 100.265 28.532C99.3287 29.18 98.3447 29.504 97.3127 29.504C96.5687 29.504 95.9087 29.336 95.3327 29C94.7807 28.64 94.3487 28.112 94.0367 27.416C93.7247 26.72 93.5687 25.832 93.5687 24.752C93.5687 23.6 93.7487 22.364 94.1087 21.044C94.4927 19.7 95.0327 18.38 95.7287 17.084C96.4247 15.788 97.2527 14.612 98.2127 13.556C99.1967 12.476 100.277 11.612 101.453 10.964C102.629 10.316 103.877 9.992 105.197 9.992C105.749 9.992 106.265 10.208 106.745 10.64C107.225 11.048 107.489 11.672 107.537 12.512L107.249 13.232C107.153 12.368 106.913 11.756 106.529 11.396C106.145 11.012 105.713 10.82 105.233 10.82C104.321 10.82 103.433 11.132 102.569 11.756C101.729 12.38 100.961 13.208 100.265 14.24C99.5687 15.272 98.9567 16.424 98.4287 17.696C97.9007 18.944 97.4927 20.228 97.2047 21.548C96.9167 22.844 96.7727 24.068 96.7727 25.22C96.7727 26.276 96.9047 27.068 97.1687 27.596C97.4327 28.1 97.8287 28.352 98.3567 28.352Z" fill="#E14A4A"/>
</g>
<defs>
<filter id="filter0_d_10_2" x="0.35199" y="0.380005" width="117.125" height="37.124" filterUnits="userSpaceOnUse" color-interpolation-filters="sRGB">
<feFlood flood-opacity="0" result="BackgroundImageFix"/>
<feColorMatrix in="SourceAlpha" type="matrix" values="0 0 0 0 0 0 0 0 0 0 0 0 0 0 0 0 0 0 127 0" result="hardAlpha"/>
<feOffset dy="4"/>
<feGaussianBlur stdDeviation="2"/>
<feComposite in2="hardAlpha" operator="out"/>
<feColorMatrix type="matrix" values="0 0 0 0 0 0 0 0 0 0 0 0 0 0 0 0 0 0 0.25 0"/>
<feBlend mode="normal" in2="BackgroundImageFix" result="effect1_dropShadow_10_2"/>
<feBlend mode="normal" in="SourceGraphic" in2="effect1_dropShadow_10_2" result="shape"/>
</filter>
</defs>
</svg>
